<?xml version="1.0" encoding="iso-8859-1"?>
<!-- Generator: Adobe Illustrator 18.1.1, SVG Export Plug-In . SVG Version: 6.00 Build 0)  -->
<svg version="1.1" id="Capa_1" xmlns="http://www.w3.org/2000/svg" xmlns:xlink="http://www.w3.org/1999/xlink" x="0px" y="0px"
	 viewBox="0 0 573.008 573.008" style="enable-background:new 0 0 573.008 573.008;" xml:space="preserve">
<g>
	<g>
		<path style="fill:#010002;" d="M310.155,191.031c2.448,0,4.896-0.612,7.344-1.836c3.267-2.04,5.307-5.1,6.12-9.18
			c0.816-4.08,0.204-7.752-1.836-11.016L256.911,66.795c-2.04-3.264-4.998-5.304-8.874-6.12s-7.446-0.204-10.71,1.836
			c-3.264,2.04-5.304,5.1-6.12,9.18s-0.204,7.752,1.836,11.016l64.872,101.592C300.363,188.787,304.443,191.031,310.155,191.031z
			 M570.256,203.271c2.445,3.672,3.264,7.752,2.445,12.24c-0.813,3.672-3.363,7.956-7.647,12.852s-11.73,10.2-22.338,15.912
			c-10.608-0.816-20.706-1.938-30.294-3.366c-9.59-1.428-18.057-2.754-25.398-3.978c-8.568-1.632-16.524-3.264-23.868-4.896
			c-0.813,4.08-1.938,8.364-3.366,12.852c-1.428,4.488-3.159,9.18-5.199,14.076c-18.771-3.672-34.986-9.078-48.654-16.218
			c-13.668-7.14-25.092-14.382-34.272-21.726c-9.18-7.344-16.317-14.178-21.42-20.502c-5.1-6.324-8.262-10.506-9.483-12.546
			l78.336-80.172l14.073-50.796l29.986,36.72c9.384,2.04,17.137,3.876,23.256,5.508c6.12,1.632,11.019,3.06,14.688,4.284
			c4.488,1.632,7.752,3.06,9.792,4.284c4.488,2.856,7.956,7.344,10.404,13.464c2.445,6.12,4.485,12.546,6.117,19.278
			c1.635,6.732,3.063,12.954,4.284,18.666c1.227,5.712,2.856,9.792,4.896,12.24c4.486,4.488,9.384,8.568,14.688,12.24
			C556.588,187.359,562.911,193.887,570.256,203.271z M278.331,307.311c-1.632,31.416-2.244,53.448-1.836,66.099
			c-5.304-0.408-11.016-1.021-17.136-1.836c-6.12-0.816-11.934-1.53-17.442-2.145c-5.508-0.609-10.2-1.224-14.076-1.836
			s-6.426-0.918-7.65-0.918c-10.608-1.224-14.484,3.468-11.628,14.076l25.704,103.428c1.632,6.938,0.51,13.362-3.366,19.278
			s-9.282,9.894-16.218,11.934c-0.816,0-1.836,0.104-3.06,0.309s-2.244,0.306-3.06,0.306c-6.12,0-11.526-1.836-16.218-5.508
			c-4.692-3.672-7.854-8.364-9.486-14.076l-33.048-129.746c-0.816-4.488-3.366-6.63-7.65-6.426s-7.038,2.346-8.262,6.426
			l-30.6,129.132c-1.632,6.12-4.896,11.019-9.792,14.688c-4.896,3.669-10.2,5.507-15.912,5.507c-2.856,0-4.896-0.204-6.12-0.612
			c-7.344-2.04-12.954-6.018-16.83-11.934s-4.998-12.342-3.366-19.278l37.332-153l3.06-92.412
			c-15.504-3.672-28.866-8.772-40.086-15.3c-11.22-6.528-20.4-13.158-27.54-19.89c-7.14-6.732-12.444-12.546-15.912-17.442
			s-5.406-7.752-5.814-8.568c-2.448-4.488-2.958-9.078-1.53-13.77s4.386-8.262,8.874-10.71s9.18-3.06,14.076-1.836
			s8.772,4.08,11.628,8.568c0,0.408,0.918,1.938,2.754,4.59c1.836,2.652,4.692,5.814,8.568,9.486s8.67,7.65,14.382,11.934
			s12.648,8.058,20.808,11.322c2.04,0.816,4.488,1.428,7.344,1.836c4.896,1.224,11.832,1.836,20.808,1.836h182.376
			c-4.08,17.544-7.242,35.802-9.486,54.774C280.677,274.569,279.147,291.807,278.331,307.311z M321.172,211.227
			c3.672,4.896,8.771,10.812,15.3,17.748c6.525,6.936,14.79,14.076,24.786,21.42c9.996,7.344,21.828,14.28,35.496,20.808
			c13.668,6.525,29.478,11.628,47.43,15.3c-1.632,4.488-3.162,8.771-4.59,12.852c-1.431,4.08-3.162,8.16-5.202,12.24
			c-1.227,3.264-2.754,7.65-4.59,13.158s-1.326,13.564,1.527,24.174c1.227,5.304,3.471,13.668,6.732,25.092
			c2.448,9.792,6.018,23.46,10.71,41.004c4.692,17.545,10.914,40.395,18.666,68.545c2.04,6.938,1.122,13.466-2.754,19.584
			c-3.876,6.119-9.282,9.995-16.218,11.63c-1.227,0.405-2.349,0.714-3.366,0.918c-1.021,0.203-2.144,0.306-3.366,0.306
			c-5.712,0-11.016-1.836-15.912-5.508c-4.896-3.672-8.16-8.364-9.792-14.076l-26.313-100.369c-2.04-3.672-4.185-6.12-6.429-7.344
			c-2.241-1.226-4.794-2.04-7.647-2.448c-3.264-0.815-6.324-0.611-9.18,0.612c-2.856,1.224-4.896,4.284-6.12,9.18l-23.868,99.756
			c-1.632,6.12-4.896,11.019-9.792,14.688c-4.896,3.672-10.2,5.508-15.912,5.508c-0.816,0-1.836-0.103-3.063-0.306
			c-1.224-0.204-2.241-0.309-3.06-0.309c-6.936-2.04-12.444-6.018-16.524-11.934s-5.1-12.342-3.06-19.278l22.645-93.022
			c0.407-3.266,0.203-6.527-0.61-9.791c0-6.12,0.102-15.606,0.306-28.459c0.204-12.854,0.714-27.233,1.53-43.146
			c0.814-15.912,2.244-32.538,4.284-49.878S317.907,226.323,321.172,211.227z"/>
	</g>
</g>
<g>
</g>
<g>
</g>
<g>
</g>
<g>
</g>
<g>
</g>
<g>
</g>
<g>
</g>
<g>
</g>
<g>
</g>
<g>
</g>
<g>
</g>
<g>
</g>
<g>
</g>
<g>
</g>
<g>
</g>
</svg>
