<?xml version="1.0" ?><svg data-name="Layer 1" id="Layer_1" viewBox="0 0 32 32" xmlns="http://www.w3.org/2000/svg"><title/><path d="M26.47,3h0L10.37,4l-6,3H3v4H4.38l6,3,7.72,0.48-5,12.83a1.22,1.22,0,0,0,0,1.21,1.16,1.16,0,0,0,1,.49h2.93A2,2,0,0,0,19,27.72l6.16-12.8L26.47,15h0c1.66,0,2.5-2,2.5-6S28.16,3,26.47,3ZM4,10V8H4.62L10,5.31v7.38L4.62,10H4ZM18.05,27.27a1,1,0,0,1-1,.73H14.13C14,28,14,28,14,28A0.36,0.36,0,0,1,14,27.68l5.1-13.14L24,14.85ZM26.51,14L11,13V5L26.5,4C27.44,4,28,5.87,28,9S27.44,14,26.51,14Z"/><rect height="1" width="4" x="22" y="6"/><rect height="1" width="4" x="22" y="8"/><rect height="1" width="4" x="22" y="10"/></svg>